<svg width="960" height="720" viewBox="0 0 960 720" fill="none" xmlns="http://www.w3.org/2000/svg">
  <rect width="960" height="720" rx="44" fill="#091017"/>
  <rect x="44" y="44" width="872" height="632" rx="34" fill="url(#bg)"/>
  <g opacity="0.28" stroke="#D6E3F2" stroke-width="1">
    <path d="M90 154H870"/>
    <path d="M90 242H870"/>
    <path d="M90 330H870"/>
    <path d="M90 418H870"/>
    <path d="M90 506H870"/>
    <path d="M90 594H870"/>
    <path d="M186 100V636"/>
    <path d="M306 100V636"/>
    <path d="M426 100V636"/>
    <path d="M546 100V636"/>
    <path d="M666 100V636"/>
    <path d="M786 100V636"/>
  </g>
  <rect x="204" y="372" width="456" height="122" rx="18" fill="#E8E0D5"/>
  <rect x="244" y="300" width="174" height="86" rx="16" fill="#F1ECE5"/>
  <rect x="466" y="274" width="150" height="98" rx="16" fill="#F1ECE5"/>
  <rect x="186" y="346" width="504" height="24" rx="12" fill="#C9A84C"/>
  <rect x="226" y="278" width="210" height="20" rx="10" fill="#C9A84C"/>
  <rect x="446" y="252" width="188" height="18" rx="9" fill="#C9A84C"/>
  <rect x="284" y="394" width="146" height="78" rx="10" fill="#BFD1DC" fill-opacity="0.74"/>
  <rect x="462" y="394" width="120" height="78" rx="10" fill="#BFD1DC" fill-opacity="0.74"/>
  <path d="M138 550H820" stroke="#F6E9BF" stroke-width="3" stroke-linecap="round"/>
  <path d="M110 582H848" stroke="#C9A84C" stroke-opacity="0.58" stroke-width="2" stroke-linecap="round" stroke-dasharray="6 7"/>
  <path d="M260 520C290 478 328 458 372 458" stroke="#F0E2B5" stroke-width="2.5" stroke-linecap="round"/>
  <path d="M670 520C698 482 730 462 768 462" stroke="#F0E2B5" stroke-width="2.5" stroke-linecap="round"/>
  <defs>
    <linearGradient id="bg" x1="120" y1="92" x2="860" y2="628" gradientUnits="userSpaceOnUse">
      <stop stop-color="#17312F"/>
      <stop offset="1" stop-color="#0B1820"/>
    </linearGradient>
  </defs>
</svg>
