<svg width="960" height="720" viewBox="0 0 960 720" fill="none" xmlns="http://www.w3.org/2000/svg">
  <rect width="960" height="720" rx="44" fill="#0A0E13"/>
  <rect x="48" y="48" width="864" height="624" rx="32" fill="url(#bg)"/>
  <g opacity="0.3" stroke="#D7E4F4" stroke-width="1">
    <path d="M80 140H880"/>
    <path d="M80 220H880"/>
    <path d="M80 300H880"/>
    <path d="M80 380H880"/>
    <path d="M80 460H880"/>
    <path d="M80 540H880"/>
    <path d="M160 90V620"/>
    <path d="M280 90V620"/>
    <path d="M400 90V620"/>
    <path d="M520 90V620"/>
    <path d="M640 90V620"/>
    <path d="M760 90V620"/>
  </g>
  <rect x="200" y="356" width="430" height="138" rx="16" fill="#D9D8D1"/>
  <rect x="468" y="250" width="238" height="154" rx="16" fill="#EFEDE8"/>
  <rect x="182" y="332" width="464" height="22" rx="11" fill="#C9A84C"/>
  <rect x="448" y="228" width="286" height="20" rx="10" fill="#C9A84C"/>
  <rect x="264" y="384" width="136" height="82" rx="8" fill="#C5D4DF" fill-opacity="0.7"/>
  <rect x="418" y="384" width="136" height="82" rx="8" fill="#C5D4DF" fill-opacity="0.7"/>
  <rect x="516" y="280" width="130" height="92" rx="8" fill="#D8E0E7" fill-opacity="0.8"/>
  <path d="M150 520H796" stroke="#F4E7BD" stroke-width="3" stroke-linecap="round"/>
  <path d="M120 560H830" stroke="#C9A84C" stroke-opacity="0.55" stroke-width="2" stroke-linecap="round" stroke-dasharray="5 7"/>
  <circle cx="236" cy="222" r="54" fill="#C9A84C" fill-opacity="0.16"/>
  <defs>
    <linearGradient id="bg" x1="104" y1="84" x2="872" y2="636" gradientUnits="userSpaceOnUse">
      <stop stop-color="#15202B"/>
      <stop offset="1" stop-color="#0D1620"/>
    </linearGradient>
  </defs>
</svg>
