<svg width="960" height="720" viewBox="0 0 960 720" fill="none" xmlns="http://www.w3.org/2000/svg">
  <rect width="960" height="720" rx="44" fill="#0A0E13"/>
  <rect x="44" y="44" width="872" height="632" rx="34" fill="url(#bg)"/>
  <g opacity="0.25" stroke="#DCE5F2" stroke-width="1">
    <path d="M96 150H872"/>
    <path d="M96 238H872"/>
    <path d="M96 326H872"/>
    <path d="M96 414H872"/>
    <path d="M96 502H872"/>
    <path d="M96 590H872"/>
    <path d="M184 100V632"/>
    <path d="M312 100V632"/>
    <path d="M440 100V632"/>
    <path d="M568 100V632"/>
    <path d="M696 100V632"/>
    <path d="M824 100V632"/>
  </g>
  <rect x="188" y="370" width="510" height="112" rx="18" fill="#E8DDD1"/>
  <rect x="220" y="302" width="194" height="82" rx="16" fill="#F6F0E6"/>
  <rect x="438" y="320" width="228" height="64" rx="16" fill="#F6F0E6"/>
  <rect x="170" y="348" width="546" height="20" rx="10" fill="#C9A84C"/>
  <rect x="204" y="282" width="226" height="18" rx="9" fill="#C9A84C"/>
  <rect x="426" y="300" width="252" height="18" rx="9" fill="#C9A84C"/>
  <rect x="260" y="392" width="124" height="64" rx="8" fill="#D4E0E8" fill-opacity="0.7"/>
  <rect x="458" y="392" width="168" height="64" rx="8" fill="#D4E0E8" fill-opacity="0.74"/>
  <rect x="196" y="500" width="426" height="24" rx="12" fill="#6E8B97" fill-opacity="0.75"/>
  <path d="M144 560H816" stroke="#F6E9BF" stroke-width="3" stroke-linecap="round"/>
  <circle cx="708" cy="214" r="56" fill="#C9A84C" fill-opacity="0.14"/>
  <defs>
    <linearGradient id="bg" x1="116" y1="96" x2="860" y2="638" gradientUnits="userSpaceOnUse">
      <stop stop-color="#1D322F"/>
      <stop offset="1" stop-color="#0E1620"/>
    </linearGradient>
  </defs>
</svg>
