<svg width="960" height="720" viewBox="0 0 960 720" fill="none" xmlns="http://www.w3.org/2000/svg">
  <rect width="960" height="720" rx="44" fill="#091017"/>
  <rect x="42" y="42" width="876" height="636" rx="34" fill="url(#bg)"/>
  <g opacity="0.22" stroke="#E2E7EF" stroke-width="1">
    <path d="M88 152H872"/>
    <path d="M88 248H872"/>
    <path d="M88 344H872"/>
    <path d="M88 440H872"/>
    <path d="M88 536H872"/>
    <path d="M176 104V632"/>
    <path d="M308 104V632"/>
    <path d="M440 104V632"/>
    <path d="M572 104V632"/>
    <path d="M704 104V632"/>
    <path d="M836 104V632"/>
  </g>
  <rect x="204" y="320" width="164" height="192" rx="18" fill="#ECEAE5"/>
  <rect x="346" y="268" width="184" height="244" rx="18" fill="#F4F2EE"/>
  <rect x="508" y="356" width="218" height="156" rx="18" fill="#E7E4DD"/>
  <rect x="188" y="296" width="196" height="22" rx="11" fill="#C9A84C"/>
  <rect x="330" y="244" width="220" height="20" rx="10" fill="#C9A84C"/>
  <rect x="494" y="332" width="254" height="20" rx="10" fill="#C9A84C"/>
  <rect x="236" y="354" width="92" height="126" rx="8" fill="#C7D6E1" fill-opacity="0.72"/>
  <rect x="388" y="304" width="98" height="176" rx="8" fill="#C7D6E1" fill-opacity="0.75"/>
  <rect x="548" y="386" width="140" height="88" rx="8" fill="#C7D6E1" fill-opacity="0.72"/>
  <path d="M126 560H830" stroke="#F6E9BF" stroke-width="3" stroke-linecap="round"/>
  <path d="M104 586H850" stroke="#C9A84C" stroke-opacity="0.55" stroke-width="2" stroke-linecap="round" stroke-dasharray="6 8"/>
  <defs>
    <linearGradient id="bg" x1="116" y1="94" x2="862" y2="638" gradientUnits="userSpaceOnUse">
      <stop stop-color="#20222B"/>
      <stop offset="1" stop-color="#0E1820"/>
    </linearGradient>
  </defs>
</svg>
