<svg width="960" height="600" viewBox="0 0 960 600" fill="none" xmlns="http://www.w3.org/2000/svg">
  <rect width="960" height="600" rx="48" fill="#0D1117"/>
  <g opacity="0.55">
    <path d="M0 108H960" stroke="rgba(255,255,255,0.08)"/>
    <path d="M0 204H960" stroke="rgba(255,255,255,0.08)"/>
    <path d="M0 300H960" stroke="rgba(255,255,255,0.08)"/>
    <path d="M0 396H960" stroke="rgba(255,255,255,0.08)"/>
    <path d="M0 492H960" stroke="rgba(255,255,255,0.08)"/>
    <path d="M120 0V600" stroke="rgba(255,255,255,0.08)"/>
    <path d="M240 0V600" stroke="rgba(255,255,255,0.08)"/>
    <path d="M360 0V600" stroke="rgba(255,255,255,0.08)"/>
    <path d="M480 0V600" stroke="rgba(255,255,255,0.08)"/>
    <path d="M600 0V600" stroke="rgba(255,255,255,0.08)"/>
    <path d="M720 0V600" stroke="rgba(255,255,255,0.08)"/>
    <path d="M840 0V600" stroke="rgba(255,255,255,0.08)"/>
  </g>
  <path d="M174 404H796" stroke="#C9A84C" stroke-width="8" stroke-linecap="round" opacity="0.85"/>
  <path d="M286 224H640V376H286V224Z" fill="#101722" stroke="#C9A84C" stroke-width="4"/>
  <path d="M236 282H328V404H236V282Z" fill="#101722" stroke="white" stroke-opacity="0.65" stroke-width="4"/>
  <path d="M612 252H736V404H612V252Z" fill="#101722" stroke="white" stroke-opacity="0.65" stroke-width="4"/>
  <path d="M344 264H584V404H344V264Z" fill="#182230" stroke="white" stroke-opacity="0.72" stroke-width="4"/>
  <path d="M396 292H534V404H396V292Z" fill="#0D1117" stroke="#C9A84C" stroke-opacity="0.9" stroke-width="3"/>
  <path d="M286 224L360 184H714L640 224" stroke="#C9A84C" stroke-width="4" stroke-linejoin="round"/>
  <path d="M360 184V224" stroke="#C9A84C" stroke-width="4"/>
  <path d="M714 184V224" stroke="#C9A84C" stroke-width="4"/>
  <circle cx="748" cy="124" r="42" fill="#C9A84C" fill-opacity="0.12" stroke="#C9A84C" stroke-opacity="0.45"/>
  <path d="M130 138H324" stroke="white" stroke-opacity="0.6" stroke-width="2" stroke-dasharray="10 10"/>
  <path d="M656 468H832" stroke="white" stroke-opacity="0.6" stroke-width="2" stroke-dasharray="10 10"/>
  <text x="134" y="128" fill="#EAE6DD" font-family="Sora, Arial, sans-serif" font-size="26" letter-spacing="4">SUBMITTED PROFILE</text>
</svg>
