<svg xmlns="http://www.w3.org/2000/svg" viewBox="14 24 82 72" fill="none">
  <path d="M31 65 20 60 29 73 38 69Z" fill="#8f8a7d" opacity="0.5"/>
  <ellipse cx="52" cy="64" rx="23" ry="18" fill="#8f8a7d" opacity="0.35"/>
  <circle cx="74" cy="50" r="13" fill="#8f8a7d" opacity="0.4"/>
  <ellipse cx="49" cy="65" rx="11" ry="15" transform="rotate(-24 49 65)" fill="#8f8a7d" opacity="0.25"/>
  <circle cx="78" cy="47" r="2.2" fill="#e8e4da"/>
  <path d="M85 50 95 46 88 55Z" fill="#c9a84c"/>
  <path d="M49 81V89" stroke="#e8e4da" stroke-width="2.5" stroke-linecap="round"/>
  <path d="M58 81V89" stroke="#e8e4da" stroke-width="2.5" stroke-linecap="round"/>
  <path d="M60 42c0-7.4 6-13.4 13.4-13.4 7 0 12.8 5.4 13.4 12.2v2.2H60V42Z" fill="#c9a84c" opacity="0.85"/>
  <path d="M58 43h31c1.8 0 3.2 1.4 3.2 3.2 0 1.1-.5 2-1.4 2.7H58.4c-.9-.7-1.4-1.6-1.4-2.7 0-1.8 1.4-3.2 3.2-3.2Z" fill="#c9a84c" opacity="0.7"/>
</svg>
